<svg width="163" height="187" viewBox="0 0 163 187" fill="none" xmlns="http://www.w3.org/2000/svg">
<g filter="url(#filter0_d_2167_8270)">
<path fill-rule="evenodd" clip-rule="evenodd" d="M114.322 83.211H116.407C119.62 83.211 122.241 86.5268 122.241 90.6214V139.563C122.241 143.653 119.62 147 116.407 147H45.8341C42.6208 147 40 143.653 40 139.563V90.6214C40 86.5266 42.6208 83.211 45.8339 83.211H47.919V73.4531C47.919 55.405 62.2412 40.3284 80.1428 40.0066C80.6317 39.9978 81.6091 39.9978 82.0982 40.0066C99.9995 40.3284 114.322 55.405 114.322 73.4531V83.211ZM82.0982 83.211H100.58H100.58V73.4531C100.58 62.7022 91.8428 53.8128 81.1204 53.8128C70.3981 53.8128 61.661 62.7022 61.661 73.4531V83.211H80.1428H82.0982ZM76.0377 103.416H96.8525C97.64 103.416 98.0778 104.327 97.586 104.941L93.0782 110.576C92.8999 110.799 92.6301 110.929 92.3448 110.929H76.0378C72.6144 110.929 69.3764 112.485 67.2378 115.158L58.8826 125.602C58.7043 125.825 58.4345 125.955 58.1492 125.955H50.9333C50.1458 125.955 49.7079 125.044 50.1999 124.429L61.3711 110.465C64.9355 106.009 70.3318 103.416 76.0377 103.416ZM111.284 103.416H108.428H108.428H104.068C103.783 103.416 103.513 103.545 103.335 103.768L86.8065 124.429C86.3145 125.044 86.7524 125.955 87.5399 125.955H90.3965H90.3966H94.7558C95.041 125.955 95.3109 125.825 95.4892 125.602L112.018 104.942C112.51 104.327 112.072 103.416 111.284 103.416ZM87.837 114.685H76.0377C73.7554 114.685 71.5968 115.723 70.171 117.505L64.6319 124.429C64.1399 125.044 64.5778 125.955 65.3652 125.955H72.5812C72.8665 125.955 73.1363 125.825 73.3146 125.602L76.0378 122.198H83.3293C83.6145 122.198 83.8844 122.068 84.0627 121.846L88.5705 116.211C89.0622 115.596 88.6244 114.685 87.837 114.685Z" fill="white"/>
</g>
<defs>
<filter id="filter0_d_2167_8270" x="0" y="0" width="162.241" height="187" filterUnits="userSpaceOnUse" color-interpolation-filters="sRGB">
<feFlood flood-opacity="0" result="BackgroundImageFix"/>
<feColorMatrix in="SourceAlpha" type="matrix" values="0 0 0 0 0 0 0 0 0 0 0 0 0 0 0 0 0 0 127 0" result="hardAlpha"/>
<feOffset/>
<feGaussianBlur stdDeviation="20"/>
<feComposite in2="hardAlpha" operator="out"/>
<feColorMatrix type="matrix" values="0 0 0 0 0.2 0 0 0 0 1 0 0 0 0 1 0 0 0 0.42 0"/>
<feBlend mode="normal" in2="BackgroundImageFix" result="effect1_dropShadow_2167_8270"/>
<feBlend mode="normal" in="SourceGraphic" in2="effect1_dropShadow_2167_8270" result="shape"/>
</filter>
</defs>
</svg>
