<svg width="30" height="30" viewBox="0 0 30 30" fill="none" xmlns="http://www.w3.org/2000/svg">
<rect x="2.00293" y="1.99854" width="26" height="26" rx="13" fill="#031D3C"/>
<path fill-rule="evenodd" clip-rule="evenodd" d="M6.35254 23.9714C5.19764 24.6515 4.97558 26.237 6.05059 27.0375C8.54885 28.8976 11.6459 29.9985 15 29.9985C23.2843 29.9985 30 23.2828 30 14.9985C30 14.325 29.9556 13.6618 29.8696 13.0118C29.6936 11.6819 28.1984 11.1065 27.0425 11.7872C26.2599 12.248 25.8851 13.1611 25.961 14.0661C25.9868 14.3735 26 14.6845 26 14.9985C26 21.0737 21.0751 25.9985 15 25.9985C12.7303 25.9985 10.6211 25.3111 8.86938 24.1331C8.11565 23.6262 7.1352 23.5105 6.35254 23.9714ZM4.11234 16.5765C4.24764 17.5184 3.88405 18.4969 3.06415 18.9797C1.95551 19.6326 0.516297 19.1221 0.272394 17.8589C0.093622 16.9329 0 15.9767 0 14.9985C0 6.71426 6.71573 -0.00146484 15 -0.00146484C18.6714 -0.00146484 22.0347 1.31752 24.6419 3.50747C25.6268 4.33473 25.3756 5.84058 24.2673 6.49326C23.4478 6.97585 22.4163 6.81926 21.6598 6.24295C19.8112 4.8347 17.5032 3.99854 15 3.99854C8.92487 3.99854 4 8.9234 4 14.9985C4 15.5343 4.03831 16.0612 4.11234 16.5765Z" fill="#FF267E"/>
</svg>
